<?xml version="1.0" standalone="no"?><!DOCTYPE svg PUBLIC "-//W3C//DTD SVG 1.1//EN" "http://www.w3.org/Graphics/SVG/1.1/DTD/svg11.dtd"><svg t="1732116318817" class="icon" viewBox="0 0 1024 1024" version="1.1" xmlns="http://www.w3.org/2000/svg" p-id="9456" xmlns:xlink="http://www.w3.org/1999/xlink" width="40" height="40"><path d="M512 501.333333a80 80 0 1 0 80 80A80 80 0 0 0 512 501.333333z m36.906667 122.88a8.746667 8.746667 0 0 1-12.586667 0l-31.146667-33.28a9.6 9.6 0 0 1-2.56-5.973333v-49.706667a8.96 8.96 0 0 1 9.173334-8.96 8.746667 8.746667 0 0 1 8.96 8.746667v45.653333l28.8 30.72a8.96 8.96 0 0 1-0.64 12.8z" fill="#CB894D" p-id="9457"></path><path d="M756.906667 443.52a27.946667 27.946667 0 0 0-27.946667-27.946667H295.04a28.16 28.16 0 0 0-28.16 27.946667v277.333333a27.946667 27.946667 0 0 0 28.16 27.946667h433.92a27.946667 27.946667 0 0 0 27.946667-27.946667zM512 688a106.666667 106.666667 0 1 1 106.666667-106.666667 106.666667 106.666667 0 0 1-106.666667 106.666667z" fill="#CB894D" p-id="9458"></path><path d="M512 0a512 512 0 1 0 512 512A512 512 0 0 0 512 0z m124.16 261.12a28.16 28.16 0 0 1 56.106667 0v55.893333a28.16 28.16 0 1 1-56.106667 0z m-304.426667 0a27.946667 27.946667 0 0 1 55.893334 0v55.893333a27.946667 27.946667 0 1 1-55.893334 0z m460.16 501.333333a28.16 28.16 0 0 1-28.373333 28.373334H260.48a28.16 28.16 0 0 1-28.373333-28.373334V318.08a28.16 28.16 0 0 1 28.373333-28.373333h42.666667v26.88a56.106667 56.106667 0 0 0 61.013333 55.893333 58.24 58.24 0 0 0 50.986667-58.666667V290.133333h192v26.88a56.106667 56.106667 0 0 0 61.226666 55.893334 58.24 58.24 0 0 0 50.773334-58.666667V290.133333h42.666666a28.16 28.16 0 0 1 28.373334 28.373334z" fill="#CB894D" p-id="9459"></path></svg>