<?xml version="1.0" standalone="no"?><!DOCTYPE svg PUBLIC "-//W3C//DTD SVG 1.1//EN" "http://www.w3.org/Graphics/SVG/1.1/DTD/svg11.dtd"><svg t="1732257496629" class="icon" viewBox="0 0 1024 1024" version="1.1" xmlns="http://www.w3.org/2000/svg" p-id="23660" width="64" height="64" xmlns:xlink="http://www.w3.org/1999/xlink"><path d="M501.922909 0.023273h20.014546l19.688727 0.232727C770.024727 4.421818 949.085091 56.552727 954.065455 136.215273L954.181818 139.636364v744.727272c0 85.061818-196.514909 139.636364-442.181818 139.636364l-19.805091-0.116364C259.141818 1021.067636 74.984727 968.610909 69.934545 887.784727L69.818182 884.363636V139.636364l0.116363-3.421091C75.054545 54.295273 264.261818 1.466182 501.922909 0zM907.659636 205.730909c-67.886545 43.333818-203.566545 70.120727-363.799272 73.262546l-12.055273 0.186181L512 279.272727c-173.986909 0-323.304727-27.368727-395.636364-73.565091V884.363636c0 43.473455 178.594909 93.090909 395.636364 93.090909l19.316364-0.139636c205.032727-2.792727 371.130182-49.291636 376.203636-90.996364L907.636364 884.363636V205.707636z m-228.864 216.482909c6.679273-10.077091 20.526545-12.101818 30.836364-7.098182 3.304727 1.605818 5.957818 3.607273 9.076364 6.376728 4.026182 3.607273 9.169455 9.006545 15.150545 15.825454 10.938182 12.474182 23.808 28.741818 36.235636 45.963637l10.24 14.498909C815.732364 549.306182 837.818182 595.037091 837.818182 628.363636a139.636364 139.636364 0 1 1-279.272727 0c0-24.948364 12.008727-54.784 33.28-89.972363 8.517818-14.056727 18.385455-28.718545 29.370181-43.776a957.952 957.952 0 0 1 40.983273-52.200728l7.074909-8.28509 8.075637-9.285819 1.466181-2.653091zM453.818182 698.181818a23.272727 23.272727 0 0 1 2.722909 46.382546L453.818182 744.727273h-209.454546a23.272727 23.272727 0 0 1-2.722909-46.382546L244.363636 698.181818h209.454546z m246.388363-228.631273l-2.39709 2.839273a912.174545 912.174545 0 0 0-39.005091 49.617455c-10.24 14.056727-19.386182 27.648-27.136 40.494545C614.446545 590.894545 605.090909 614.190545 605.090909 628.363636a93.090909 93.090909 0 1 0 186.181818 0c0-21.876364-21.131636-64.232727-53.946182-110.894545a648.075636 648.075636 0 0 0-34.071272-44.404364l-3.048728-3.514182zM453.818182 558.545455a23.272727 23.272727 0 0 1 2.722909 46.382545L453.818182 605.090909h-209.454546a23.272727 23.272727 0 0 1-2.722909-46.382545L244.363636 558.545455h209.454546z m0-128a23.272727 23.272727 0 0 1 2.722909 46.382545l-2.722909 0.162909h-209.454546a23.272727 23.272727 0 0 1-2.722909-46.382545L244.363636 430.545455h209.454546z m67.863273-383.976728h-19.36291C289.675636 48.034909 116.363636 96.814545 116.363636 139.636364c0 41.541818 162.955636 88.669091 366.731637 92.788363l9.565091 0.162909L512 232.727273l19.316364-0.139637C739.560727 229.771636 907.636364 181.829818 907.636364 139.636364c0-42.821818-173.312-91.601455-385.954909-93.067637z" fill="#1afa29" p-id="23661"></path></svg>