<?xml version="1.0" standalone="no"?><!DOCTYPE svg PUBLIC "-//W3C//DTD SVG 1.1//EN" "http://www.w3.org/Graphics/SVG/1.1/DTD/svg11.dtd"><svg t="1732106444873" class="icon" viewBox="0 0 1024 1024" version="1.1" xmlns="http://www.w3.org/2000/svg" p-id="9509" width="40" height="40" xmlns:xlink="http://www.w3.org/1999/xlink"><path d="M287.232 84.992c-54.784 0-105.984 21.504-144.896 59.904-38.912 38.4-59.904 90.112-59.904 144.896 0 112.64 91.648 204.8 204.8 204.8h204.8v-204.8c0-113.152-91.648-204.8-204.8-204.8z m449.536 449.024h-204.8v204.8c0 113.15712 91.64288 204.8 204.8 204.8 113.152 0 204.8-91.64288 204.8-204.8 0-113.152-92.16-204.8-204.8-204.8z m204.8-244.224c0-112.64-91.648-204.8-204.8-204.8-113.15712 0-204.8 91.648-204.8 204.8v204.8h204.8c112.64 0 204.8-92.16 204.8-204.8zM82.432 738.816c0 113.15712 91.648 204.8 204.8 204.8s204.8-91.64288 204.8-204.8v-204.8h-204.8c-112.64 0-204.8 92.16-204.8 204.8z" fill="#06d4fa" p-id="9510"></path></svg>