<?xml version="1.0" standalone="no"?><!DOCTYPE svg PUBLIC "-//W3C//DTD SVG 1.1//EN" "http://www.w3.org/Graphics/SVG/1.1/DTD/svg11.dtd"><svg t="1732116518083" class="icon" viewBox="0 0 1024 1024" version="1.1" xmlns="http://www.w3.org/2000/svg" p-id="10809" xmlns:xlink="http://www.w3.org/1999/xlink" width="40" height="40"><path d="M512 603c193.9 0 351-71.6 351-160h2v144c-1.2 87.9-158.3 159-352 159s-350.8-71.1-352-159V443c0 88.4 157.1 160 351 160z" fill="#1afa29" p-id="10810"></path><path d="M512 820c193.9 0 351-71.6 351-160h1v145c-2.4 87.4-158.8 158-351.5 158S163.4 892.4 161 805V660c0 88.4 157.1 160 351 160z m0-754c194.4 0 352 71.6 352 160v152h-0.5C853.2 462.2 699.8 529 512 529s-341.2-66.8-351.5-151h-0.5V226c0-88.4 157.6-160 352-160z m-1 308c178.4 0 323-66.3 323-148S689.4 78 511 78s-323 66.3-323 148 144.6 148 323 148z" fill="#1afa29" p-id="10811"></path><path d="M714 226c0 51.4-90.9 93-203 93s-203-41.6-203-93 90.9-93 203-93 203 41.6 203 93z" fill="#1afa29" p-id="10812"></path><path d="M511 319c112.1 0 203-41.6 203-93s-90.9-93-203-93-203 41.6-203 93 90.9 93 203 93z" fill="#1afa29" p-id="10813"></path></svg>